<svg width="412" height="412" viewBox="0 0 412 412" fill="none" xmlns="http://www.w3.org/2000/svg">
<mask id="mask0_64_33361" style="mask-type:luminance" maskUnits="userSpaceOnUse" x="0" y="0" width="412" height="412">
<path fill-rule="evenodd" clip-rule="evenodd" d="M412 128.314C412 123.423 412.002 118.531 411.972 113.64C411.947 109.519 411.9 105.4 411.788 101.281C411.546 92.3047 411.016 83.2512 409.42 74.3747C407.801 65.3703 405.157 56.9898 400.991 48.8083C396.895 40.7669 391.544 33.4084 385.16 27.0289C378.778 20.6494 371.417 15.3024 363.373 11.209C355.183 7.04147 346.793 4.39848 337.779 2.77999C328.902 1.186 319.846 0.657498 310.869 0.414999C306.748 0.303499 302.626 0.256499 298.504 0.230999C293.61 0.200999 288.716 0.203499 283.822 0.203499L226.998 0H184.499L128.681 0.203499C123.777 0.203499 118.874 0.200999 113.97 0.230999C109.839 0.256499 105.71 0.303499 101.581 0.414999C92.5833 0.657498 83.5069 1.1865 74.6084 2.78249C65.582 4.40048 57.1801 7.04247 48.9791 11.207C40.9177 15.3009 33.5413 20.6484 27.1453 27.0289C20.7503 33.4079 15.3899 40.7649 11.2864 48.8048C7.10845 56.9903 4.45947 65.3758 2.83648 74.3852C1.23849 83.2582 0.708995 92.3087 0.465497 101.281C0.354497 105.4 0.306498 109.52 0.281498 113.64C0.251498 118.532 0 124.608 0 129.5L0.00149999 184.544L0 227.499L0.253998 283.713C0.253998 288.611 0.251998 293.509 0.281498 298.407C0.306498 302.533 0.354497 306.658 0.465997 310.783C0.708995 319.771 1.23949 328.837 2.83898 337.726C4.46147 346.742 7.10995 355.135 11.2844 363.327C15.3884 371.38 20.7498 378.748 27.1453 385.136C33.5408 391.525 40.9152 396.879 48.9751 400.978C57.1811 405.151 65.587 407.798 74.6189 409.418C83.5134 411.014 92.5868 411.544 101.581 411.786C105.71 411.898 109.84 411.945 113.971 411.97C118.874 412 123.777 411.999 128.681 411.999L185.003 412H227.608L283.822 411.998C288.716 411.998 293.61 412 298.504 411.97C302.626 411.945 306.748 411.898 310.869 411.786C319.849 411.543 328.908 411.014 337.789 409.416C346.798 407.796 355.184 405.15 363.369 400.98C371.415 396.881 378.777 391.526 385.16 385.136C391.543 378.749 396.893 371.382 400.989 363.33C405.158 355.134 407.802 346.738 409.422 337.715C411.017 328.83 411.546 319.767 411.788 310.783C411.9 306.658 411.947 302.533 411.972 298.407C412.002 293.509 412 288.611 412 283.713C412 283.713 411.997 228.492 411.997 227.499V184.499C411.997 183.766 412 128.314 412 128.314" fill="white"/>
</mask>
<g mask="url(#mask0_64_33361)">
<path d="M192.844 81.4222C192.844 86.0713 189.071 89.8444 184.422 89.8444C179.756 89.8444 176 86.0713 176 81.4222C176 76.7563 179.756 73 184.422 73C189.071 73 192.844 76.7563 192.844 81.4222Z" fill="#888888"/>
<path d="M212.733 80.8667C212.733 85.2091 209.209 88.7333 204.867 88.7333C200.509 88.7333 197 85.2091 197 80.8667C197 76.5085 200.509 73 204.867 73C209.209 73 212.733 76.5085 212.733 80.8667Z" fill="#888888"/>
<path d="M231.511 79.7556C231.511 83.4846 228.485 86.5111 224.756 86.5111C221.013 86.5111 218 83.4846 218 79.7556C218 76.013 221.013 73 224.756 73C228.485 73 231.511 76.013 231.511 79.7556Z" fill="#888888"/>
<path d="M180.333 101.667C180.333 105.899 176.899 109.333 172.667 109.333C168.419 109.333 165 105.899 165 101.667C165 97.4193 168.419 94 172.667 94C176.899 94 180.333 97.4193 180.333 101.667Z" fill="#888888"/>
<path d="M201.022 101.511C201.022 105.657 197.657 109.022 193.511 109.022C189.35 109.022 186 105.657 186 101.511C186 97.35 189.35 94 193.511 94C197.657 94 201.022 97.35 201.022 101.511Z" fill="#888888"/>
<path d="M221.178 101.089C221.178 105.002 218.002 108.178 214.089 108.178C210.162 108.178 207 105.002 207 101.089C207 97.1616 210.162 94 214.089 94C218.002 94 221.178 97.1616 221.178 101.089Z" fill="#888888"/>
<path d="M239.511 99.7556C239.511 102.933 236.933 105.511 233.756 105.511C230.567 105.511 228 102.933 228 99.7556C228 96.567 230.567 94 233.756 94C236.933 94 239.511 96.567 239.511 99.7556Z" fill="#888888"/>
<path d="M171.533 123.267C171.533 127.83 167.83 131.533 163.267 131.533C158.687 131.533 155 127.83 155 123.267C155 118.687 158.687 115 163.267 115C167.83 115 171.533 118.687 171.533 123.267Z" fill="#888888"/>
<path d="M193.289 123.644C193.289 128.416 189.416 132.289 184.644 132.289C179.855 132.289 176 128.416 176 123.644C176 118.855 179.855 115 184.644 115C189.416 115 193.289 118.855 193.289 123.644Z" fill="#888888"/>
<path d="M213.533 123.267C213.533 127.83 209.83 131.533 205.267 131.533C200.687 131.533 197 127.83 197 123.267C197 118.687 200.687 115 205.267 115C209.83 115 213.533 118.687 213.533 123.267Z" fill="#888888"/>
<path d="M229.778 120.889C229.778 124.14 227.14 126.778 223.889 126.778C220.626 126.778 218 124.14 218 120.889C218 117.626 220.626 115 223.889 115C227.14 115 229.778 117.626 229.778 120.889Z" fill="#888888"/>
<path d="M248.333 119.667C248.333 122.243 246.243 124.333 243.667 124.333C241.081 124.333 239 122.243 239 119.667C239 117.081 241.081 115 243.667 115C246.243 115 248.333 117.081 248.333 119.667Z" fill="#888888"/>
<path d="M161.511 144.756C161.511 149.589 157.589 153.511 152.756 153.511C147.905 153.511 144 149.589 144 144.756C144 139.905 147.905 136 152.756 136C157.589 136 161.511 139.905 161.511 144.756Z" fill="#888888"/>
<path d="M173.178 140.089C173.178 142.346 171.346 144.178 169.089 144.178C166.824 144.178 165 142.346 165 140.089C165 137.824 166.824 136 169.089 136C171.346 136 173.178 137.824 173.178 140.089Z" fill="#888888"/>
<path d="M190.756 138.378C190.756 139.69 189.69 140.756 188.378 140.756C187.06 140.756 186 139.69 186 138.378C186 137.06 187.06 136 188.378 136C189.69 136 190.756 137.06 190.756 138.378Z" fill="#888888"/>
<path d="M219.444 142.222C219.444 145.657 216.657 148.444 213.222 148.444C209.775 148.444 207 145.657 207 142.222C207 138.775 209.775 136 213.222 136C216.657 136 219.444 138.775 219.444 142.222Z" fill="#888888"/>
<path d="M237.911 140.956C237.911 143.691 235.691 145.911 232.956 145.911C230.21 145.911 228 143.691 228 140.956C228 138.21 230.21 136 232.956 136C235.691 136 237.911 138.21 237.911 140.956Z" fill="#888888"/>
<path d="M257.444 140.222C257.444 142.553 255.553 144.444 253.222 144.444C250.883 144.444 249 142.553 249 140.222C249 137.883 250.883 136 253.222 136C255.553 136 257.444 137.883 257.444 140.222Z" fill="#888888"/>
<path d="M150.489 165.244C150.489 169.795 146.795 173.489 142.244 173.489C137.677 173.489 134 169.795 134 165.244C134 160.677 137.677 157 142.244 157C146.795 157 150.489 160.677 150.489 165.244Z" fill="#888888"/>
<path d="M161.533 160.267C161.533 162.07 160.07 163.533 158.267 163.533C156.457 163.533 155 162.07 155 160.267C155 158.457 156.457 157 158.267 157C160.07 157 161.533 158.457 161.533 160.267Z" fill="#888888"/>
<path d="M181.556 159.778C181.556 161.311 180.311 162.556 178.778 162.556C177.239 162.556 176 161.311 176 159.778C176 158.239 177.239 157 178.778 157C180.311 157 181.556 158.239 181.556 159.778Z" fill="#888888"/>
<path d="M229.733 162.867C229.733 166.105 227.105 168.733 223.867 168.733C220.617 168.733 218 166.105 218 162.867C218 159.617 220.617 157 223.867 157C227.105 157 229.733 159.617 229.733 162.867Z" fill="#888888"/>
<path d="M248.556 161.778C248.556 164.415 246.415 166.556 243.778 166.556C241.131 166.556 239 164.415 239 161.778C239 159.131 241.131 157 243.778 157C246.415 157 248.556 159.131 248.556 161.778Z" fill="#888888"/>
<path d="M267.733 160.867C267.733 163.001 266.001 164.733 263.867 164.733C261.725 164.733 260 163.001 260 160.867C260 158.725 261.725 157 263.867 157C266.001 157 267.733 158.725 267.733 160.867Z" fill="#888888"/>
<path d="M138.022 185.511C138.022 189.657 134.657 193.022 130.511 193.022C126.35 193.022 123 189.657 123 185.511C123 181.35 126.35 178 130.511 178C134.657 178 138.022 181.35 138.022 185.511Z" fill="#888888"/>
<path d="M151.689 181.844C151.689 183.967 149.967 185.689 147.844 185.689C145.715 185.689 144 183.967 144 181.844C144 179.715 145.715 178 147.844 178C149.967 178 151.689 179.715 151.689 181.844Z" fill="#888888"/>
<path d="M171.489 181.244C171.489 183.035 170.035 184.489 168.244 184.489C166.447 184.489 165 183.035 165 181.244C165 179.447 166.447 178 168.244 178C170.035 178 171.489 179.447 171.489 181.244Z" fill="#888888"/>
<path d="M239.644 183.822C239.644 187.036 237.036 189.644 233.822 189.644C230.597 189.644 228 187.036 228 183.822C228 180.597 230.597 178 233.822 178C237.036 178 239.644 180.597 239.644 183.822Z" fill="#888888"/>
<path d="M258.333 182.667C258.333 185.243 256.243 187.333 253.667 187.333C251.081 187.333 249 185.243 249 182.667C249 180.081 251.081 178 253.667 178C256.243 178 258.333 180.081 258.333 182.667Z" fill="#888888"/>
<path d="M276.978 181.489C276.978 183.415 275.415 184.978 273.489 184.978C271.556 184.978 270 183.415 270 181.489C270 179.556 271.556 178 273.489 178C275.415 178 276.978 179.556 276.978 181.489Z" fill="#888888"/>
<path d="M127.178 206.089C127.178 210.002 124.002 213.178 120.089 213.178C116.162 213.178 113 210.002 113 206.089C113 202.162 116.162 199 120.089 199C124.002 199 127.178 202.162 127.178 206.089Z" fill="#888888"/>
<path d="M141.422 202.711C141.422 204.76 139.76 206.422 137.711 206.422C135.655 206.422 134 204.76 134 202.711C134 200.655 135.655 199 137.711 199C139.76 199 141.422 200.655 141.422 202.711Z" fill="#888888"/>
<path d="M250.111 204.556C250.111 207.622 247.622 210.111 244.556 210.111C241.478 210.111 239 207.622 239 204.556C239 201.478 241.478 199 244.556 199C247.622 199 250.111 201.478 250.111 204.556Z" fill="#888888"/>
<path d="M270.533 204.267C270.533 207.174 268.174 209.533 265.267 209.533C262.349 209.533 260 207.174 260 204.267C260 201.349 262.349 199 265.267 199C268.174 199 270.533 201.349 270.533 204.267Z" fill="#888888"/>
<path d="M287.711 202.356C287.711 204.208 286.208 205.711 284.356 205.711C282.497 205.711 281 204.208 281 202.356C281 200.497 282.497 199 284.356 199C286.208 199 287.711 200.497 287.711 202.356Z" fill="#888888"/>
<path d="M115.911 226.956C115.911 230.795 112.795 233.911 108.956 233.911C105.102 233.911 102 230.795 102 226.956C102 223.102 105.102 220 108.956 220C112.795 220 115.911 223.102 115.911 226.956Z" fill="#888888"/>
<path d="M132.333 224.667C132.333 227.243 130.243 229.333 127.667 229.333C125.081 229.333 123 227.243 123 224.667C123 222.081 125.081 220 127.667 220C130.243 220 132.333 222.081 132.333 224.667Z" fill="#888888"/>
<path d="M151.2 223.6C151.2 225.587 149.587 227.2 147.6 227.2C145.606 227.2 144 225.587 144 223.6C144 221.606 145.606 220 147.6 220C149.587 220 151.2 221.606 151.2 223.6Z" fill="#888888"/>
<path d="M258.2 224.6C258.2 227.139 256.139 229.2 253.6 229.2C251.052 229.2 249 227.139 249 224.6C249 222.052 251.052 220 253.6 220C256.139 220 258.2 222.052 258.2 224.6Z" fill="#888888"/>
<path d="M279.333 224.667C279.333 227.243 277.243 229.333 274.667 229.333C272.081 229.333 270 227.243 270 224.667C270 222.081 272.081 220 274.667 220C277.243 220 279.333 222.081 279.333 224.667Z" fill="#888888"/>
<path d="M297.8 223.4C297.8 225.277 296.277 226.8 294.4 226.8C292.516 226.8 291 225.277 291 223.4C291 221.516 292.516 220 294.4 220C296.277 220 297.8 221.516 297.8 223.4Z" fill="#888888"/>
<path d="M104.978 247.489C104.978 251.071 102.071 253.978 98.4889 253.978C94.894 253.978 92 251.071 92 247.489C92 243.894 94.894 241 98.4889 241C102.071 241 104.978 243.894 104.978 247.489Z" fill="#888888"/>
<path d="M124.111 246.556C124.111 249.622 121.622 252.111 118.556 252.111C115.478 252.111 113 249.622 113 246.556C113 243.478 115.478 241 118.556 241C121.622 241 124.111 243.478 124.111 246.556Z" fill="#888888"/>
<path d="M144 246C144 248.76 141.76 251 139 251C136.23 251 134 248.76 134 246C134 243.23 136.23 241 139 241C141.76 241 144 243.23 144 246Z" fill="#888888"/>
<path d="M166.6 246.8C166.6 250.002 164.002 252.6 160.8 252.6C157.587 252.6 155 250.002 155 246.8C155 243.587 157.587 241 160.8 241C164.002 241 166.6 243.587 166.6 246.8Z" fill="#888888"/>
<path d="M187.067 246.533C187.067 249.588 184.588 252.067 181.533 252.067C178.468 252.067 176 249.588 176 246.533C176 243.468 178.468 241 181.533 241C184.588 241 187.067 243.468 187.067 246.533Z" fill="#888888"/>
<path d="M206.956 245.978C206.956 248.726 204.726 250.956 201.978 250.956C199.22 250.956 197 248.726 197 245.978C197 243.22 199.22 241 201.978 241C204.726 241 206.956 243.22 206.956 245.978Z" fill="#888888"/>
<path d="M226.267 245.133C226.267 247.415 224.415 249.267 222.133 249.267C219.843 249.267 218 247.415 218 245.133C218 242.843 219.843 241 222.133 241C224.415 241 226.267 242.843 226.267 245.133Z" fill="#888888"/>
<path d="M243.667 243.333C243.667 244.621 242.621 245.667 241.333 245.667C240.041 245.667 239 244.621 239 243.333C239 242.041 240.041 241 241.333 241C242.621 241 243.667 242.041 243.667 243.333Z" fill="#888888"/>
<path d="M268.4 245.2C268.4 247.518 266.518 249.4 264.2 249.4C261.873 249.4 260 247.518 260 245.2C260 242.873 261.873 241 264.2 241C266.518 241 268.4 242.873 268.4 245.2Z" fill="#888888"/>
<path d="M288.822 244.911C288.822 247.07 287.07 248.822 284.911 248.822C282.744 248.822 281 247.07 281 244.911C281 242.744 282.744 241 284.911 241C287.07 241 288.822 242.744 288.822 244.911Z" fill="#888888"/>
<path d="M308.533 244.267C308.533 246.07 307.07 247.533 305.267 247.533C303.457 247.533 302 246.07 302 244.267C302 242.457 303.457 241 305.267 241C307.07 241 308.533 242.457 308.533 244.267Z" fill="#888888"/>
<path d="M93.2667 268.133C93.2667 271.519 90.5189 274.267 87.1333 274.267C83.7355 274.267 81 271.519 81 268.133C81 264.735 83.7355 262 87.1333 262C90.5189 262 93.2667 264.735 93.2667 268.133Z" fill="#888888"/>
<path d="M113.333 267.667C113.333 270.795 110.795 273.333 107.667 273.333C104.527 273.333 102 270.795 102 267.667C102 264.527 104.527 262 107.667 262C110.795 262 113.333 264.527 113.333 267.667Z" fill="#888888"/>
<path d="M138.156 269.578C138.156 273.761 134.761 277.156 130.578 277.156C126.38 277.156 123 273.761 123 269.578C123 265.38 126.38 262 130.578 262C134.761 262 138.156 265.38 138.156 269.578Z" fill="#888888"/>
<path d="M158.222 269.111C158.222 273.036 155.036 276.222 151.111 276.222C147.172 276.222 144 273.036 144 269.111C144 265.172 147.172 262 151.111 262C155.036 262 158.222 265.172 158.222 269.111Z" fill="#888888"/>
<path d="M171.089 265.044C171.089 266.725 169.725 268.089 168.044 268.089C166.358 268.089 165 266.725 165 265.044C165 263.358 166.358 262 168.044 262C169.725 262 171.089 263.358 171.089 265.044Z" fill="#888888"/>
<path d="M197.2 267.6C197.2 270.691 194.691 273.2 191.6 273.2C188.498 273.2 186 270.691 186 267.6C186 264.498 188.498 262 191.6 262C194.691 262 197.2 264.498 197.2 267.6Z" fill="#888888"/>
<path d="M216.022 266.511C216.022 269.001 214.001 271.022 211.511 271.022C209.012 271.022 207 269.001 207 266.511C207 264.012 209.012 262 211.511 262C214.001 262 216.022 264.012 216.022 266.511Z" fill="#888888"/>
<path d="M236.711 266.356C236.711 268.76 234.76 270.711 232.356 270.711C229.943 270.711 228 268.76 228 266.356C228 263.943 229.943 262 232.356 262C234.76 262 236.711 263.943 236.711 266.356Z" fill="#888888"/>
<path d="M256.378 265.689C256.378 267.725 254.725 269.378 252.689 269.378C250.645 269.378 249 267.725 249 265.689C249 263.645 250.645 262 252.689 262C254.725 262 256.378 263.645 256.378 265.689Z" fill="#888888"/>
<path d="M277.511 265.756C277.511 267.829 275.829 269.511 273.756 269.511C271.675 269.511 270 267.829 270 265.756C270 263.675 271.675 262 273.756 262C275.829 262 277.511 263.675 277.511 265.756Z" fill="#888888"/>
<path d="M298.467 265.733C298.467 267.794 296.794 269.467 294.733 269.467C292.665 269.467 291 267.794 291 265.733C291 263.665 292.665 262 294.733 262C296.794 262 298.467 263.665 298.467 265.733Z" fill="#888888"/>
<path d="M317.644 264.822C317.644 266.38 316.38 267.644 314.822 267.644C313.259 267.644 312 266.38 312 264.822C312 263.259 313.259 262 314.822 262C316.38 262 317.644 263.259 317.644 264.822Z" fill="#888888"/>
<path d="M83.4889 289.244C83.4889 292.691 80.6914 295.489 77.2444 295.489C73.785 295.489 71 292.691 71 289.244C71 285.785 73.785 283 77.2444 283C80.6914 283 83.4889 285.785 83.4889 289.244Z" fill="#888888"/>
<path d="M104.133 289.067C104.133 292.415 101.415 295.133 98.0667 295.133C94.7057 295.133 92 292.415 92 289.067C92 285.706 94.7057 283 98.0667 283C101.415 283 104.133 285.706 104.133 289.067Z" fill="#888888"/>
<path d="M125.889 289.444C125.889 293.002 123.002 295.889 119.444 295.889C115.874 295.889 113 293.002 113 289.444C113 285.874 115.874 283 119.444 283C123.002 283 125.889 285.874 125.889 289.444Z" fill="#888888"/>
<path d="M143.2 287.6C143.2 290.139 141.139 292.2 138.6 292.2C136.052 292.2 134 290.139 134 287.6C134 285.052 136.052 283 138.6 283C141.139 283 143.2 285.052 143.2 287.6Z" fill="#888888"/>
<path d="M227.511 287.756C227.511 290.381 225.381 292.511 222.756 292.511C220.121 292.511 218 290.381 218 287.756C218 285.121 220.121 283 222.756 283C225.381 283 227.511 285.121 227.511 287.756Z" fill="#888888"/>
<path d="M246.644 286.822C246.644 288.932 244.932 290.644 242.822 290.644C240.705 290.644 239 288.932 239 286.822C239 284.705 240.705 283 242.822 283C244.932 283 246.644 284.705 246.644 286.822Z" fill="#888888"/>
<path d="M267.289 286.644C267.289 288.656 265.656 290.289 263.644 290.289C261.625 290.289 260 288.656 260 286.644C260 284.625 261.625 283 263.644 283C265.656 283 267.289 284.625 267.289 286.644Z" fill="#888888"/>
<path d="M288.156 286.578C288.156 288.553 286.553 290.156 284.578 290.156C282.596 290.156 281 288.553 281 286.578C281 284.596 282.596 283 284.578 283C286.553 283 288.156 284.596 288.156 286.578Z" fill="#888888"/>
<path d="M308.222 286.111C308.222 287.828 306.828 289.222 305.111 289.222C303.388 289.222 302 287.828 302 286.111C302 284.388 303.388 283 305.111 283C306.828 283 308.222 284.388 308.222 286.111Z" fill="#888888"/>
<path d="M329.044 286.022C329.044 287.69 327.69 289.044 326.022 289.044C324.348 289.044 323 287.69 323 286.022C323 284.348 324.348 283 326.022 283C327.69 283 329.044 284.348 329.044 286.022Z" fill="#888888"/>
<path d="M94.1556 310.578C94.1556 314.209 91.2087 317.156 87.5778 317.156C83.9337 317.156 81 314.209 81 310.578C81 306.934 83.9337 304 87.5778 304C91.2087 304 94.1556 306.934 94.1556 310.578Z" fill="#888888"/>
<path d="M114.267 310.133C114.267 313.519 111.519 316.267 108.133 316.267C104.735 316.267 102 313.519 102 310.133C102 306.735 104.735 304 108.133 304C111.519 304 114.267 306.735 114.267 310.133Z" fill="#888888"/>
<path d="M257.489 308.244C257.489 310.587 255.587 312.489 253.244 312.489C250.893 312.489 249 310.587 249 308.244C249 305.893 250.893 304 253.244 304C255.587 304 257.489 305.893 257.489 308.244Z" fill="#888888"/>
<path d="M277.733 307.867C277.733 310.001 276.001 311.733 273.867 311.733C271.725 311.733 270 310.001 270 307.867C270 305.725 271.725 304 273.867 304C276.001 304 277.733 305.725 277.733 307.867Z" fill="#888888"/>
<path d="M298.156 307.578C298.156 309.553 296.553 311.156 294.578 311.156C292.596 311.156 291 309.553 291 307.578C291 305.596 292.596 304 294.578 304C296.553 304 298.156 305.596 298.156 307.578Z" fill="#888888"/>
<path d="M318.311 307.156C318.311 308.897 316.897 310.311 315.156 310.311C313.407 310.311 312 308.897 312 307.156C312 305.407 313.407 304 315.156 304C316.897 304 318.311 305.407 318.311 307.156Z" fill="#888888"/>
<path d="M340.2 307.6C340.2 309.587 338.587 311.2 336.6 311.2C334.606 311.2 333 309.587 333 307.6C333 305.606 334.606 304 336.6 304C338.587 304 340.2 305.606 340.2 307.6Z" fill="#888888"/>
<path d="M84.6889 331.844C84.6889 335.623 81.6226 338.689 77.8444 338.689C74.0526 338.689 71 335.623 71 331.844C71 328.053 74.0526 325 77.8444 325C81.6226 325 84.6889 328.053 84.6889 331.844Z" fill="#888888"/>
<path d="M105.156 331.578C105.156 335.209 102.209 338.156 98.5778 338.156C94.9337 338.156 92 335.209 92 331.578C92 327.934 94.9337 325 98.5778 325C102.209 325 105.156 327.934 105.156 331.578Z" fill="#888888"/>
<path d="M289.444 329.222C289.444 331.553 287.553 333.444 285.222 333.444C282.883 333.444 281 331.553 281 329.222C281 326.883 282.883 325 285.222 325C287.553 325 289.444 326.883 289.444 329.222Z" fill="#888888"/>
<path d="M309.289 328.644C309.289 330.656 307.656 332.289 305.644 332.289C303.625 332.289 302 330.656 302 328.644C302 326.625 303.625 325 305.644 325C307.656 325 309.289 326.625 309.289 328.644Z" fill="#888888"/>
<path d="M330.956 328.978C330.956 331.174 329.174 332.956 326.978 332.956C324.774 332.956 323 331.174 323 328.978C323 326.774 324.774 325 326.978 325C329.174 325 330.956 326.774 330.956 328.978Z" fill="#888888"/>
</g>
</svg>
